<svg xmlns="http://www.w3.org/2000/svg" viewBox="0 0 100 100"><defs><style>.cls-1{fill:none;}.cls-2{fill:#fff;}.cls-3{fill:#231f20;}</style></defs><title>Asset 1</title><g id="Layer_2" data-name="Layer 2"><g id="Layer_1-2" data-name="Layer 1"><rect class="cls-1" width="100" height="100"/><polygon class="cls-2" points="65.9 34.84 65.9 25.4 64.2 25.4 64.2 33.68 65.9 34.84"/><polygon class="cls-2" points="18.2 41 18.2 41 18.2 41 18.2 41"/><path class="cls-2" d="M19.14,41H22.4V72.4h31V54.7h6.4V72.4H70.6V41h2.52L47.29,23.3ZM38.6,61.2H30.7V53.8h7.9ZM62.3,36.3H31.2v-1H62.3Z"/><path class="cls-3" d="M66.9,35.53V24.4H63.2V33L47.31,22.1,17.93,40.58l.27.42h0l.27.42.67-.42L47.29,23.3,73.12,41l.6.41.56-.82Zm-1-10.13v9.44l-1.7-1.16V25.4Z"/><polygon class="cls-3" points="70.6 41 70.6 72.4 59.8 72.4 59.8 54.7 53.4 54.7 53.4 72.4 22.4 72.4 22.4 41 21.9 41 21.4 41 21.4 73.4 54.4 73.4 54.4 55.7 58.8 55.7 58.8 73.4 71.6 73.4 71.6 41 71.1 41 70.6 41"/><rect class="cls-3" x="31.2" y="35.3" width="31.1" height="1"/><rect class="cls-2" x="31.7" y="54.8" width="5.9" height="5.4"/><path d="M30.7,61.2h7.9V53.8H30.7Zm1-6.4h5.9v5.4H31.7Z"/></g></g></svg>