<svg xmlns="http://www.w3.org/2000/svg" viewBox="0 0 101 101"><defs><style>.cls-1,.cls-2{fill:none;}.cls-1{stroke:#fff;stroke-miterlimit:10;}.cls-3{fill:#231f20;}</style></defs><title>Asset 1</title><g id="Layer_2" data-name="Layer 2"><g id="Layer_1-2" data-name="Layer 1"><rect class="cls-1" x="0.5" y="0.5" width="100" height="100"/><polygon class="cls-2" points="65.97 84.42 65.97 84.42 65.97 84.42 65.97 84.42"/><path class="cls-2" d="M66,81.87a.63.63,0,0,1,.14-.4l-.18.07-.4.16-.36.11a4.67,4.67,0,0,1-.52.08l-.24,0,.07,0,.11.07.11.15.7,1.24H66Z"/><polygon class="cls-2" points="63.98 83.42 64.25 83.42 64.13 83.2 63.98 83.42"/><path class="cls-2" d="M62.25,80.1a2.6,2.6,0,0,0,.36.3l.09.06a2.94,2.94,0,0,0,.46.25h0a3.24,3.24,0,0,0,.53.16,2,2,0,0,0,.42,0l.15,0A2.89,2.89,0,1,0,61.38,78a2.78,2.78,0,0,0,.22,1.11h0a2.79,2.79,0,0,0,.61.92S62.24,80.09,62.25,80.1Z"/><path class="cls-2" d="M67.83,80.3a.54.54,0,0,1-.08-.51c0,.08-.11.14-.15.22s-.17.26-.26.38a3.56,3.56,0,0,1-.26.31,3.42,3.42,0,0,1-.4.36c-.07.06-.13.13-.2.18h.24l.17.07,2.32,1.22Z"/><path class="cls-2" d="M62.93,81.68a3.1,3.1,0,0,1-.55-.26l-.15-.07v0l.06.13v.22l-.08,1.7h.57l.82-1.26a.64.64,0,0,1,.31-.25c-.06,0-.12,0-.18,0l-.53-.11Z"/><polygon class="cls-2" points="58.53 83.42 61.22 83.42 61.27 82.21 58.53 83.42"/><polygon class="cls-2" points="66.97 83.42 68.79 83.42 66.97 82.46 66.97 83.42"/><path class="cls-2" d="M33.3,22.5c2.26-2.94-1.84-9.75-1.89-9.82s0,0,0-.06L23,22.74h0C28.39,24.33,32,24.25,33.3,22.5Z"/><path class="cls-2" d="M73,12.17H32.27c.23.37,4.49,7.48,1.83,10.94-.91,1.18-2.48,1.77-4.69,1.77A24.75,24.75,0,0,1,22.7,23.7a.6.6,0,0,1-.11-.06V80.92a2.5,2.5,0,0,0,2.5,2.5H57.53a.62.62,0,0,1-.08-.82l1.94-2.7-3.29-.52a.68.68,0,0,1-.5-.45.69.69,0,0,1,.06-.49.62.62,0,0,1,.39-.3L59.11,77l-2.49-2.23a.62.62,0,0,1-.2-.58.63.63,0,0,1,.73-.52l3.29.65-.9-3.21a.65.65,0,0,1,.15-.61.67.67,0,0,1,.44-.2.69.69,0,0,1,.46.17L63,72.77l1-3.19a.65.65,0,0,1,1.23,0L66,72.86l2.56-2.15a.63.63,0,0,1,1,.72l-1.1,3.13,3.29-.44a.64.64,0,0,1,.61.26.6.6,0,0,1,.12.47.64.64,0,0,1-.25.42l-2.64,2,3,1.41a.67.67,0,0,1,.38.82.65.65,0,0,1-.33.38.59.59,0,0,1-.37.07L69,80.28l1.76,2.82a.59.59,0,0,1,.11.32H73a2.5,2.5,0,0,0,2.5-2.5V14.67A2.5,2.5,0,0,0,73,12.17ZM67.15,53.93H31.33a.5.5,0,0,1-.5-.5.5.5,0,0,1,.5-.5H67.15a.5.5,0,0,1,.5.5A.5.5,0,0,1,67.15,53.93Zm0-9.46H31.33a.5.5,0,0,1,0-1H67.15a.5.5,0,0,1,0,1Zm0-9.46H31.33a.5.5,0,0,1,0-1H67.15a.5.5,0,0,1,0,1Z"/><path class="cls-2" d="M60.55,80,59,82.11l2.37-1a.64.64,0,0,1,.36,0,1.29,1.29,0,0,1-.17-.16l-.08-.07a2.6,2.6,0,0,1-.25-.31,2.31,2.31,0,0,1-.2-.24,3.3,3.3,0,0,1-.18-.32c-.07-.12-.14-.24-.2-.37l-.06-.18A3.82,3.82,0,0,1,60.37,78,3.87,3.87,0,0,1,61,75.89l0,0a3.38,3.38,0,0,1,.45-.55l0,0s0,0,0,0a3.93,3.93,0,0,1,.55-.44l.07,0a3.32,3.32,0,0,1,.59-.31,1.12,1.12,0,0,1,.26-.08,2.44,2.44,0,0,1,.46-.14,3.07,3.07,0,0,1,.53-.06l.23,0h0A3.9,3.9,0,0,1,68.16,78a2.58,2.58,0,0,1,0,.29l0,.31c0,.15-.06.29-.1.43v0a5.25,5.25,0,0,1-.17.52.93.93,0,0,1,.13-.15l.15-.11.28,0L71,79.1l-2.5-1.19a.65.65,0,0,1-.13-.91l.15-.15,2-1.56L68,75.62a.63.63,0,0,1-.72-.54l0-.13.06-.19.86-2.44-2,1.68a.64.64,0,0,1-.89-.06l-.09-.1-.06-.21-.59-2.5-.76,2.5a.65.65,0,0,1-.8.42l-.11,0-.14-.12-1.87-1.8.7,2.48a.64.64,0,0,1-.41.79l-.12,0-.19,0-2.57-.51,1.91,1.7a.63.63,0,0,1,.2.81l-.08.14-.2.13-2.49,1,2.52.39a.65.65,0,0,1,.42.26.63.63,0,0,1,.11.48l0,.12Z"/><path class="cls-3" d="M73,11.17H31.3L21.59,22.84V80.92a3.5,3.5,0,0,0,3.5,3.5H61.17l-.05,1.12a.63.63,0,0,0,.11.48.6.6,0,0,0,.43.25.62.62,0,0,0,.63-.29l1-1.56h1.5l1,1.69a.64.64,0,0,0,.55.31.64.64,0,0,0,.64-.63V84.42h6a3.5,3.5,0,0,0,3.5-3.5V14.67A3.5,3.5,0,0,0,73,11.17ZM31.39,12.62s0,0,0,.06,4.15,6.88,1.89,9.82C32,24.25,28.39,24.33,23,22.74h0Zm27.14,70.8,2.74-1.21-.05,1.21Zm2-4.16a.65.65,0,0,0-.42-.26l-2.52-.39,2.49-1,.2-.13.08-.14a.63.63,0,0,0-.2-.81l-1.91-1.7,2.57.51.19,0,.12,0a.64.64,0,0,0,.41-.79l-.7-2.48,1.87,1.8.14.12.11,0a.65.65,0,0,0,.8-.42l.76-2.5.59,2.5.06.21.09.1a.64.64,0,0,0,.89.06l2-1.68-.86,2.44-.06.19,0,.13a.63.63,0,0,0,.72.54l2.57-.33-2,1.56-.15.15a.65.65,0,0,0,.13.91L71,79.1l-2.62.23-.28,0-.15.11a.93.93,0,0,0-.13.15,5.25,5.25,0,0,0,.17-.52v0c0-.14.07-.28.1-.43l0-.31a2.58,2.58,0,0,0,0-.29,3.9,3.9,0,0,0-3.88-3.89h0l-.23,0a3.07,3.07,0,0,0-.53.06,2.44,2.44,0,0,0-.46.14,1.12,1.12,0,0,0-.26.08,3.32,3.32,0,0,0-.59.31l-.07,0a3.93,3.93,0,0,0-.55.44s0,0,0,0l0,0a3.38,3.38,0,0,0-.45.55l0,0A3.87,3.87,0,0,0,60.37,78a3.82,3.82,0,0,0,.25,1.32l.06.18c.06.13.13.25.2.37a3.3,3.3,0,0,0,.18.32,2.31,2.31,0,0,0,.2.24,2.6,2.6,0,0,0,.25.31l.08.07a1.29,1.29,0,0,0,.17.16.64.64,0,0,0-.36,0l-2.37,1L60.55,80l.09-.15,0-.12A.63.63,0,0,0,60.55,79.26Zm6.34,2-.17-.07h-.24c.07,0,.13-.12.2-.18a3.42,3.42,0,0,0,.4-.36,3.56,3.56,0,0,0,.26-.31c.09-.12.18-.25.26-.38s.1-.14.15-.22a.54.54,0,0,0,.08.51l1.38,2.21Zm-3,.62a.64.64,0,0,0-.31.25l-.82,1.26h-.57l.08-1.7V81.5l-.06-.13v0l.15.07a3.1,3.1,0,0,0,.55.26l.28.09.53.11C63.8,81.88,63.86,81.91,63.92,81.91ZM61.6,79.14A2.78,2.78,0,0,1,61.38,78a2.89,2.89,0,1,1,2.88,2.9l-.15,0a2,2,0,0,1-.42,0,3.24,3.24,0,0,1-.53-.16h0a2.94,2.94,0,0,1-.46-.25l-.09-.06a2.6,2.6,0,0,1-.36-.3s0,0,0,0a2.79,2.79,0,0,1-.61-.92Zm3.1,3L64.59,82,64.48,82l-.07,0,.24,0a4.67,4.67,0,0,0,.52-.08l.36-.11.4-.16.18-.07a.63.63,0,0,0-.14.4v1.55H65.4ZM64,83.42l.15-.22.12.22Zm2,1Zm1-1v-1l1.82,1Zm8.5-2.5a2.5,2.5,0,0,1-2.5,2.5H70.86a.59.59,0,0,0-.11-.32L69,80.28,72.24,80a.59.59,0,0,0,.37-.07.65.65,0,0,0,.33-.38.67.67,0,0,0-.38-.82l-3-1.41,2.64-2a.64.64,0,0,0,.25-.42.6.6,0,0,0-.12-.47.64.64,0,0,0-.61-.26l-3.29.44,1.1-3.13a.63.63,0,0,0-1-.72L66,72.86l-.77-3.31a.65.65,0,0,0-1.23,0l-1,3.19-2.4-2.33a.69.69,0,0,0-.46-.17.67.67,0,0,0-.44.2.65.65,0,0,0-.15.61l.9,3.21-3.29-.65a.63.63,0,0,0-.73.52.62.62,0,0,0,.2.58L59.11,77l-3.06,1.17a.62.62,0,0,0-.39.3.69.69,0,0,0-.06.49.68.68,0,0,0,.5.45l3.29.52-1.94,2.7a.62.62,0,0,0,.08.82H25.09a2.5,2.5,0,0,1-2.5-2.5V23.64a.6.6,0,0,0,.11.06,24.75,24.75,0,0,0,6.71,1.18c2.21,0,3.78-.59,4.69-1.77,2.66-3.46-1.6-10.57-1.83-10.94H73a2.5,2.5,0,0,1,2.5,2.5Z"/><path class="cls-3" d="M67.15,34H31.33a.5.5,0,0,0,0,1H67.15a.5.5,0,0,0,0-1Z"/><path class="cls-3" d="M67.15,43.47H31.33a.5.5,0,0,0,0,1H67.15a.5.5,0,0,0,0-1Z"/><path class="cls-3" d="M67.15,52.93H31.33a.5.5,0,0,0-.5.5.5.5,0,0,0,.5.5H67.15a.5.5,0,0,0,.5-.5A.5.5,0,0,0,67.15,52.93Z"/><path class="cls-3" d="M67.68,85.25a.49.49,0,0,0-.52.48L67,90.37,64.4,84.82l-3.48,5.82V85.89a.5.5,0,0,0-1,0v8.37L64.28,87l3.51,7.57.37-8.76A.5.5,0,0,0,67.68,85.25Z"/></g></g></svg>