<svg xmlns="http://www.w3.org/2000/svg" viewBox="0 0 100 100"><defs><style>.cls-1{fill:none;}.cls-2{fill:#231f20;}</style></defs><title>Asset 1</title><g id="Layer_2" data-name="Layer 2"><g id="Layer_1-2" data-name="Layer 1"><rect class="cls-1" width="100" height="100"/><polygon class="cls-1" points="39.8 50 30.8 34.4 12.6 66.1 30.6 66.1 31.7 66.1 49.1 66.1 40.4 51 39.8 50"/><polygon class="cls-1" points="59.2 50.3 50 34.4 41 50 50.2 65.9 50.3 66.1 51.3 66.1 68.3 66.1 59.8 51.3 59.2 50.3"/><polygon class="cls-1" points="69.6 34.4 60.4 50.3 69.4 66.1 87.9 66.1 69.6 34.4"/><path class="cls-2" d="M69.6,32.4,59.8,49.3,50,32.4,40.4,49,30.8,32.4l-20,34.7H89.6ZM31.7,66.1H12.5L30.8,34.4l9,15.6.6,1,8.7,15.1Zm19.6,0h-1l-.1-.2L41,50l9-15.6,9.2,15.9.6,1L68.3,66h-17Zm18.1,0L60.3,50.4l9.2-15.9L87.8,66.2H69.4Z"/></g></g></svg>