<svg xmlns="http://www.w3.org/2000/svg" viewBox="0 0 100 100"><defs><style>.cls-1{fill:none;}.cls-2{fill:#231f20;}</style></defs><title>Asset 1</title><g id="Layer_2" data-name="Layer 2"><g id="Layer_1-2" data-name="Layer 1"><rect class="cls-1" width="100" height="100"/><path class="cls-1" d="M75.7,39.5h0a3.9,3.9,0,1,0-.1,7.8h0a3.88,3.88,0,0,0,3.8-3.9A3.8,3.8,0,0,0,75.7,39.5Z"/><path class="cls-1" d="M50.5,39.5a3.9,3.9,0,0,0-3.9,3.9,4,4,0,0,0,3.9,3.9,3.9,3.9,0,1,0,0-7.8Z"/><circle class="cls-1" cx="63.1" cy="43.4" r="3.9"/><path class="cls-1" d="M78.1,27.4h-30a4.33,4.33,0,0,0-4.3,4.3V53.3a4.33,4.33,0,0,0,4.3,4.3H67.6l9.6,5.5V57.6h.9a4.33,4.33,0,0,0,4.3-4.3V31.7A4.4,4.4,0,0,0,78.1,27.4ZM50.5,48.3a4.9,4.9,0,1,1,4.9-4.9A4.91,4.91,0,0,1,50.5,48.3Zm12.6,0A4.9,4.9,0,1,1,68,43.4,4.91,4.91,0,0,1,63.1,48.3Zm12.7,0h-.1a4.9,4.9,0,0,1,0-9.8h0a4.91,4.91,0,0,1,4.9,4.9A4.82,4.82,0,0,1,75.8,48.3Z"/><path class="cls-2" d="M56.5,62a4.33,4.33,0,0,1-4.3,4.3H32.8l-9.6,5.5V66.3h-.9A4.33,4.33,0,0,1,18,62V40.3A4.33,4.33,0,0,1,22.3,36H42.4V35H22.3A5.34,5.34,0,0,0,17,40.3V62a5.31,5.31,0,0,0,5.2,5.3v6.3L33,67.3H52.2A5.34,5.34,0,0,0,57.5,62V59.2h-1Z"/><path class="cls-2" d="M78.1,26.4h-30a5.34,5.34,0,0,0-5.3,5.3V53.5a5.34,5.34,0,0,0,5.3,5.3H67.3l10.9,6.3V58.8a5.31,5.31,0,0,0,5.2-5.3V31.7A5.34,5.34,0,0,0,78.1,26.4Zm4.3,27a4.33,4.33,0,0,1-4.3,4.3h-.9v5.5l-9.6-5.5H48.1a4.33,4.33,0,0,1-4.3-4.3V31.8a4.33,4.33,0,0,1,4.3-4.3h30a4.33,4.33,0,0,1,4.3,4.3Z"/><path class="cls-2" d="M50.5,38.5a4.9,4.9,0,1,0,4.9,4.9A4.91,4.91,0,0,0,50.5,38.5Zm0,8.8a3.9,3.9,0,0,1-3.9-3.9,4,4,0,0,1,3.9-3.9,3.9,3.9,0,1,1,0,7.8Z"/><path class="cls-2" d="M63.1,38.5A4.9,4.9,0,1,0,68,43.4,4.91,4.91,0,0,0,63.1,38.5Zm0,8.8a3.9,3.9,0,0,1-3.9-3.9,4,4,0,0,1,3.9-3.9,3.9,3.9,0,0,1,0,7.8Z"/><path class="cls-2" d="M75.8,38.5h-.1a4.9,4.9,0,0,0,0,9.8h0a4.91,4.91,0,0,0,4.9-4.9A4.82,4.82,0,0,0,75.8,38.5Zm-.1,8.8h0a3.9,3.9,0,1,1-.1-7.8h0a3.9,3.9,0,0,1,.1,7.8Z"/></g></g></svg>