<svg xmlns="http://www.w3.org/2000/svg" viewBox="0 0 100 100"><defs><style>.cls-1{fill:none;}.cls-2{fill:#fff;}.cls-3{fill:#231f20;}</style></defs><title>Asset 1</title><g id="Layer_2" data-name="Layer 2"><g id="Layer_1-2" data-name="Layer 1"><rect class="cls-1" width="100" height="100"/><rect class="cls-1" x="46.1" y="28.24" width="6.9" height="3.6"/><polygon class="cls-2" points="33.1 34.14 33.11 34.2 33.7 34.14 33.1 34.14"/><path class="cls-3" d="M66.8,34.24,62.2,72a2.78,2.78,0,0,1-2.7,2.3H40.4A2.78,2.78,0,0,1,37.7,72l-4-37.9-.59.06-.41,0,4,37.9a3.75,3.75,0,0,0,3.7,3.1v.2H59.5a3.94,3.94,0,0,0,3.7-3.2l4.6-37.9-.52-.06Z"/><path class="cls-3" d="M43.2,70.44V40.64a.5.5,0,0,0-1,0v29.9a.47.47,0,0,0,.5.5A.56.56,0,0,0,43.2,70.44Z"/><path class="cls-3" d="M50.5,70.44V40.64a.5.5,0,0,0-1,0v29.9a.47.47,0,0,0,.5.5A.65.65,0,0,0,50.5,70.44Z"/><path class="cls-3" d="M58.3,70.44V40.64a.5.5,0,0,0-1,0v29.9a.47.47,0,0,0,.5.5A.65.65,0,0,0,58.3,70.44Z"/><path class="cls-3" d="M72.7,31.84H54v-4.6H45.1v4.6H27.3a.5.5,0,0,0,0,1H72.6a.56.56,0,0,0,.6-.5A.47.47,0,0,0,72.7,31.84Zm-19.7,0H46.1v-3.6H53Z"/></g></g></svg>