<svg xmlns="http://www.w3.org/2000/svg" viewBox="0 0 100 100"><defs><style>.cls-1{fill:none;}.cls-2{fill:#231f20;}</style></defs><title>Asset 1</title><g id="Layer_2" data-name="Layer 2"><g id="Layer_1-2" data-name="Layer 1"><rect class="cls-1" width="100" height="100"/><path class="cls-1" d="M48.8,37.2V47.8h.8V37.2h.5a9.4,9.4,0,1,0-1.7-.1Z"/><polygon class="cls-1" points="22.1 87.1 76.1 87.1 78.15 83 20.31 83 22.1 87.1"/><polygon class="cls-1" points="62.3 48.8 50.6 48.8 47.8 48.8 35.9 48.8 30.64 54.4 68.16 54.4 62.3 48.8"/><rect class="cls-1" x="11.6" y="55.4" width="75.8" height="26.5" rx="4.5"/><path class="cls-2" d="M82.9,54.4H69.59L62.7,47.8H50.6V38.2a10.14,10.14,0,0,0,8.9-10,10.05,10.05,0,0,0-20.1-.1A10.08,10.08,0,0,0,47.8,38v9.8H35.5l-6.21,6.6H16.1a5.55,5.55,0,0,0-5.5,5.5V77.5A5.55,5.55,0,0,0,16.1,83h3.13l2.17,5.1H76.8L79.26,83H82.8a5.66,5.66,0,0,0,5.6-5.6V59.9A5.55,5.55,0,0,0,82.9,54.4ZM40.4,28.1a9.09,9.09,0,0,1,2.7-6.4,9,9,0,0,1,6.4-2.6,9.09,9.09,0,0,1,6.4,2.7,9.07,9.07,0,0,1-5.8,15.4h-.5V47.8h-.8V37.2l-.4-.1A9,9,0,0,1,40.4,28.1ZM35.9,48.8H62.3l5.86,5.6H30.64ZM76.1,87.1h-54L20.31,83H78.15Zm11.3-9.7a4.48,4.48,0,0,1-4.5,4.5H16.1a4.48,4.48,0,0,1-4.5-4.5V59.9a4.48,4.48,0,0,1,4.5-4.5H82.9a4.48,4.48,0,0,1,4.5,4.5Z"/></g></g></svg>