<svg xmlns="http://www.w3.org/2000/svg" viewBox="0 0 100 100"><defs><style>.cls-1{fill:none;}.cls-2{fill:#1b75bc;}.cls-3{fill:#fff;}.cls-4{fill:#009444;}.cls-5{fill:#ef4136;}</style></defs><title>Asset 1</title><g id="Layer_2" data-name="Layer 2"><g id="Layer_1-2" data-name="Layer 1"><rect class="cls-1" width="100" height="100"/><path class="cls-2" d="M41.6,41a21.66,21.66,0,0,1,2.39.13q1.32-.8,2.64-1.71-1.38-.44-2.73-.78A26.8,26.8,0,0,1,41.6,41Z"/><path class="cls-2" d="M54,42.32c-.83-.39-1.65-.76-2.48-1.11-.71.39-1.43.76-2.17,1.1a29.48,29.48,0,0,1,3.77,1.49C62.79,48.39,68.33,57,65.5,62.93s-13,7.1-22.65,2.52C33.41,61,27.92,52.7,30.31,46.75h-.06l.08,0c.05-.13.09-.26.15-.39a9,9,0,0,1,5.64-4.55,35.59,35.59,0,0,0,3.35-4c-8.3-1.27-15,.3-17.06,4.72C19.18,49.26,28.09,60.24,42.3,67s28.37,6.68,31.6-.13S68.22,49.06,54,42.32Z"/><path class="cls-3" d="M36.12,41.77a9,9,0,0,0-5.64,4.55c-.06.13-.1.26-.15.39A39.68,39.68,0,0,0,36.12,41.77Z"/><path class="cls-3" d="M44,41.13A21.66,21.66,0,0,0,41.6,41a23.51,23.51,0,0,1-11.29,5.75c-2.39,6,3.1,14.22,12.54,18.7C52.53,70,62.66,68.91,65.5,62.93S62.79,48.39,53.12,43.8a29.48,29.48,0,0,0-3.77-1.49,58.93,58.93,0,0,1-18,4.57A60,60,0,0,0,44,41.13Z"/><path class="cls-4" d="M30.33,46.71l-.08,0h.06A23.51,23.51,0,0,0,41.6,41a26.8,26.8,0,0,0,2.3-2.36,36.6,36.6,0,0,0,7.33-14l-8.64-3.4c2.2,6.34,0,12.09-3.12,16.53a35.59,35.59,0,0,1-3.35,4A39.68,39.68,0,0,1,30.33,46.71Z"/><path class="cls-5" d="M31.3,46.88a58.93,58.93,0,0,0,18.05-4.57c.74-.34,1.46-.71,2.17-1.1a23.59,23.59,0,0,0,6.54-5.09C66.28,26.66,73,29.41,73,29.41l5.25-8.29s-15.52-6.46-21.37,6.76c-2.12,4.8-6.08,8.62-10.25,11.54q-1.32.91-2.64,1.71A60,60,0,0,1,31.3,46.88Z"/></g></g></svg>