<svg xmlns="http://www.w3.org/2000/svg" viewBox="0 0 100 100"><defs><style>.cls-1{fill:none;}.cls-2{fill:#231f20;}</style></defs><title>Asset 1</title><g id="Layer_2" data-name="Layer 2"><g id="Layer_1-2" data-name="Layer 1"><rect class="cls-1" width="100" height="100"/><path class="cls-1" d="M81.5,27.5H18.4a5,5,0,0,0-5,5V67.6a5,5,0,0,0,5,5H81.5a5,5,0,0,0,5-5V32.5A5,5,0,0,0,81.5,27.5ZM33.9,39.1c3.8,0,6.1,2.4,6.1,6.2-.1,4.2-2.7,9-6.1,9s-6.1-4.8-6.1-9C27.8,41.5,30.1,39.1,33.9,39.1ZM47.6,63.5a.55.55,0,0,1-.5-.3A1.67,1.67,0,0,0,47,63c-1.2-3.38-3-5.51-5.32-6.1-3.8-1.1-7.8,2.1-7.9,2.1l-.3.2-.2-.2c-3-2.2-5.7-3-7.8-2.2C22.35,58,21.26,62.3,21,63a.64.64,0,0,1,0,.1.51.51,0,1,1-1-.2c0-.2,1.2-5.5,5.1-7q3.6-1.35,8.4,2.1c1.1-.8,4.8-3.1,8.4-2.1,2.7.8,4.7,3.1,6,7A.42.42,0,0,1,47.6,63.5Zm28.1,0H55.6a.5.5,0,1,1,0-1H75.7a.47.47,0,0,1,.5.5A.54.54,0,0,1,75.7,63.5Zm0-11.7H55.6a.5.5,0,0,1,0-1H75.7a.47.47,0,0,1,.5.5A.54.54,0,0,1,75.7,51.8Zm0-11.7H55.6a.5.5,0,0,1,0-1H75.7a.47.47,0,0,1,.5.5A.54.54,0,0,1,75.7,40.1Z"/><path class="cls-1" d="M33.9,53.3c2.8,0,5.1-4.4,5.1-8-.1-3.3-1.9-5.2-5.1-5.2-1.5,0-5.1.5-5.1,5.2C28.8,48.9,31.1,53.3,33.9,53.3Z"/><path class="cls-2" d="M81.5,27H18.4a5.55,5.55,0,0,0-5.5,5.5v35A5.55,5.55,0,0,0,18.4,73H81.6A5.32,5.32,0,0,0,87,67.6V32.5A5.55,5.55,0,0,0,81.5,27Zm5,40.6a5,5,0,0,1-5,5H18.4a5,5,0,0,1-5-5V32.5a5,5,0,0,1,5-5H81.5a5,5,0,0,1,5,5Z"/><path class="cls-2" d="M33.9,54.3c3.4,0,6-4.8,6.1-9,0-3.8-2.3-6.2-6.1-6.2s-6.1,2.4-6.1,6.2C27.8,49.5,30.5,54.3,33.9,54.3Zm0-14.2c3.2,0,5,1.9,5.1,5.2,0,3.6-2.3,8-5.1,8s-5.1-4.4-5.1-8C28.8,40.6,32.4,40.1,33.9,40.1Z"/><path class="cls-2" d="M41.9,55.9c-3.6-1-7.3,1.3-8.4,2.1q-4.8-3.45-8.4-2.1c-3.9,1.5-5.1,6.8-5.1,7a.51.51,0,1,0,1,.2.64.64,0,0,0,0-.1c.22-.7,1.31-5,4.46-6.2,2.1-.8,4.8,0,7.8,2.2l.2.2.3-.2c.1,0,4.1-3.2,7.9-2.1,2.35.59,4.12,2.72,5.32,6.1a1.67,1.67,0,0,1,.08.2.55.55,0,0,0,.5.3.42.42,0,0,0,.3-.6C46.6,59,44.6,56.7,41.9,55.9Z"/><path class="cls-2" d="M75.7,39.1H55.6a.5.5,0,0,0,0,1H75.7a.54.54,0,0,0,.5-.5A.47.47,0,0,0,75.7,39.1Z"/><path class="cls-2" d="M75.7,50.8H55.6a.5.5,0,0,0,0,1H75.7a.54.54,0,0,0,.5-.5A.47.47,0,0,0,75.7,50.8Z"/><path class="cls-2" d="M75.7,62.5H55.6a.5.5,0,1,0,0,1H75.7a.54.54,0,0,0,.5-.5A.47.47,0,0,0,75.7,62.5Z"/></g></g></svg>