<svg xmlns="http://www.w3.org/2000/svg" viewBox="0 0 100 100"><defs><style>.cls-1{fill:none;}.cls-2{fill:#231f20;}.cls-3{fill:#a7a9ac;}.cls-4{fill:#fbb040;}.cls-5{fill:#8b5e3c;}.cls-6{fill:#00aeef;}</style></defs><title>Asset 1</title><g id="Layer_2" data-name="Layer 2"><g id="Layer_1-2" data-name="Layer 1"><rect class="cls-1" width="100" height="100"/><polygon class="cls-2" points="23.5 66.5 23.5 66.49 23 66.5 23.5 66.5"/><path class="cls-2" d="M80.4,65v-.12l-.2.12Z"/><path class="cls-2" d="M79.4,64.85l-.35.17.85,0h-.5Z"/><path class="cls-2" d="M79.9,64.58V65h.3l.2-.12v-.61C80.24,64.38,80.07,64.48,79.9,64.58Z"/><path class="cls-2" d="M79.4,65h.5v-.42l-.5.27Z"/><path class="cls-1" d="M79.9,64.58l-.5.27-.35.17.85,0h.5v-.73C80.24,64.38,80.07,64.48,79.9,64.58Z"/><path class="cls-3" d="M40.8,32c.5,4.5,2.8,10.2,5.3,13.2.6.7,1,1.1,1.7,1.1H52a3.14,3.14,0,0,0,2.6-1.4c1.2-1.4,4.1-5.6,4.7-13.9.1-1.5.4-8.9-4.3-10.1a23.58,23.58,0,0,0-4.8-.5,14.53,14.53,0,0,0-5.4.9C40.4,23.4,40.5,29.5,40.8,32Z"/><path class="cls-2" d="M45.3,45.8a2.9,2.9,0,0,0,2.5,1.5h4a4.45,4.45,0,0,0,3.4-1.8c1.3-1.4,4.3-5.8,4.9-14.4.4-4.6-.8-10-5-11.1-2.6-.7-7.8-1-10.8.4-5,2.3-4.8,8.9-4.5,11.7A29.85,29.85,0,0,0,45.3,45.8ZM55,20.9c4.7,1.2,4.4,8.6,4.3,10.1-.6,8.3-3.5,12.5-4.7,13.9A3.14,3.14,0,0,1,52,46.3H47.8c-.7,0-1.1-.4-1.7-1.1-2.5-3-4.8-8.7-5.3-13.2-.3-2.5-.4-8.6,4-10.7a14.53,14.53,0,0,1,5.4-.9A23.58,23.58,0,0,1,55,20.9Z"/><path class="cls-4" d="M58.5,65l5.7-4.9h0a11.4,11.4,0,0,1,.43-9.87L58.2,48.3l-8.6,6.4-6.5-6.4L23.5,56V66.49l34.42-.91A3.18,3.18,0,0,1,58.5,65Z"/><path class="cls-5" d="M64.6,60.87l-5.44,4.68-.06,0a2.27,2.27,0,0,0-.9,1.8,3,3,0,0,0,.6,2,2.7,2.7,0,0,0,3.8.3l5.09-4.38.46-.39A11.47,11.47,0,0,1,64.6,60.87Z"/><path class="cls-6" d="M79.9,64.58c.17-.1.34-.2.5-.31A10.43,10.43,0,1,0,66.14,49.6c-.11.15-.2.31-.3.47s-.18.28-.26.42a10.5,10.5,0,0,0-.47,9.07c0,.12.11.23.16.34l.21.44a10.77,10.77,0,0,0,3.34,3.81l.5.31c.16.1.32.21.49.3a9.64,9.64,0,0,0,1,.48A10.16,10.16,0,0,0,79.05,65l.35-.17Z"/><path class="cls-2" d="M74.7,44.2a11.36,11.36,0,0,0-9.51,5.12L58,47.2l-8.3,6.1-6.4-6.1L22.5,55.3V66.5h1V56l19.6-7.7,6.5,6.4,8.6-6.4,6.45,1.92a11.4,11.4,0,0,0-.43,9.87h0L58.5,65a3.18,3.18,0,0,0-.58.58,3.74,3.74,0,0,0-.72,1.92,3.44,3.44,0,0,0,.9,2.7,3.54,3.54,0,0,0,2.8,1.3,3.78,3.78,0,0,0,2.4-.9L69,65.7c.06,0,.1-.1.15-.14A11.4,11.4,0,1,0,74.7,44.2Zm-7,21.12L62.6,69.7a2.7,2.7,0,0,1-3.8-.3,3,3,0,0,1-.6-2,2.27,2.27,0,0,1,.9-1.8l.06,0,5.44-4.68a11.47,11.47,0,0,0,3.55,4.06ZM80.4,65h-.5l-.85,0a10.16,10.16,0,0,1-8.21.22,9.64,9.64,0,0,1-1-.48c-.17-.09-.33-.2-.49-.3l-.5-.31a10.77,10.77,0,0,1-3.34-3.81l-.21-.44c0-.11-.11-.22-.16-.34a10.5,10.5,0,0,1,.47-9.07c.08-.14.17-.28.26-.42s.19-.32.3-.47A10.42,10.42,0,1,1,80.4,64.27V65Z"/></g></g></svg>