<svg xmlns="http://www.w3.org/2000/svg" viewBox="0 0 100 100"><defs><style>.cls-1{fill:none;}.cls-2{fill:#939393;}.cls-3{fill:#231f20;}.cls-4{fill:#ed1c24;}.cls-5{fill:#fff;}</style></defs><title>Asset 1</title><g id="Layer_2" data-name="Layer 2"><g id="Layer_1-2" data-name="Layer 1"><rect class="cls-1" width="100" height="100"/><path class="cls-2" d="M23.88,75.1H25.6l-.4-.3s.8-1.2,2.1-2.8l.8.6c-.92,1.13-1.58,2.05-1.89,2.5H78L74.35,41.3h-1.7l.45.2a33.36,33.36,0,0,1-1.5,3.2l-.9-.5c.76-1.45,1.23-2.49,1.41-2.9H54.81c-3.33,6.44-9.74,11.8-10.11,12.1l-.3.3-.3-.3c-.37-.29-6.75-5.69-10.09-12.1H28.63ZM67.7,49.8l.9.5c-1.3,2-2.5,3.8-3.6,5.3l-.8-.6C65.3,53.4,66.5,51.7,67.7,49.8Zm-7.6,9.9.7.7A15.25,15.25,0,0,1,55.3,64L55,63A13.72,13.72,0,0,0,60.1,59.7ZM49.3,62.4l-.5.9a9.72,9.72,0,0,0-5.8-1l-.1-1A10.8,10.8,0,0,1,49.3,62.4ZM36.7,63.5l.5.9a35,35,0,0,0-4.9,3.7l-.7-.7A28.87,28.87,0,0,1,36.7,63.5Z"/><path class="cls-3" d="M75.25,40.3h-20a14.85,14.85,0,0,0,1.5-6.1c0-8.5-4.8-14-12.4-14S32,25.7,32,34.2a14.64,14.64,0,0,0,1.52,6.1H27.77L22.72,76.1H79.16ZM44.4,21.2c6.9,0,11.4,5.1,11.4,13S46.3,50.7,44.4,52.4C42.5,50.7,33,42,33,34.2S37.5,21.2,44.4,21.2Zm-.3,32.2.3.3.3-.3c.37-.3,6.78-5.66,10.11-12.1h17.3c-.18.41-.65,1.45-1.41,2.9l.9.5a33.36,33.36,0,0,0,1.5-3.2l-.45-.2h1.7L78,75.1H26.21c.31-.45,1-1.37,1.89-2.5l-.8-.6c-1.3,1.6-2.1,2.8-2.1,2.8l.4.3H23.88l4.75-33.8H34C37.35,47.71,43.73,53.11,44.1,53.4Z"/><path class="cls-3" d="M60.8,60.4l-.7-.7A13.72,13.72,0,0,1,55,63l.3,1A15.25,15.25,0,0,0,60.8,60.4Z"/><path class="cls-3" d="M48.8,63.3l.5-.9a10.8,10.8,0,0,0-6.4-1.1l.1,1A9.72,9.72,0,0,1,48.8,63.3Z"/><path class="cls-3" d="M68.6,50.3l-.9-.5c-1.2,1.9-2.4,3.6-3.5,5.2l.8.6C66.1,54.1,67.3,52.3,68.6,50.3Z"/><path class="cls-3" d="M37.2,64.4l-.5-.9a28.87,28.87,0,0,0-5.1,3.9l.7.7A35,35,0,0,1,37.2,64.4Z"/><path class="cls-4" d="M44.4,52.4C46.3,50.7,55.8,42,55.8,34.2s-4.5-13-11.4-13S33,26.3,33,34.2,42.5,50.7,44.4,52.4Zm0-24.1a4.68,4.68,0,0,1,4.8,4.5,4.81,4.81,0,0,1-9.6,0A4.68,4.68,0,0,1,44.4,28.3Z"/><path class="cls-5" d="M44.4,36.2a3.68,3.68,0,0,0,3.8-3.5,3.81,3.81,0,0,0-7.6,0A3.68,3.68,0,0,0,44.4,36.2Z"/><path class="cls-3" d="M44.4,37.3a4.62,4.62,0,0,0,4.8-4.5,4.81,4.81,0,0,0-9.6,0A4.62,4.62,0,0,0,44.4,37.3Zm0-8.1a3.68,3.68,0,0,1,3.8,3.5,3.81,3.81,0,0,1-7.6,0A3.68,3.68,0,0,1,44.4,29.2Z"/></g></g></svg>