<svg xmlns="http://www.w3.org/2000/svg" viewBox="0 0 210.31 200"><defs><style>.cls-1{fill:none;}.cls-2{fill:#fff;}.cls-3{fill:#231f20;}</style></defs><title>Asset 1</title><g id="Layer_2" data-name="Layer 2"><g id="Layer_1-2" data-name="Layer 1"><rect class="cls-1" width="200" height="200"/><path class="cls-2" d="M121.81,154.7l-.4-37.9C103,114.2,89,97.6,89,78V64.4a40.05,40.05,0,0,1,9.9-26.5H36V162.1h100.8v-23Z"/><path class="cls-2" d="M136.81,167.1H36v9.7a10.5,10.5,0,0,0,10.5,10.5h79.8a10.5,10.5,0,0,0,10.5-10.5Zm-50.4,17.5a8,8,0,1,1,8-8A8,8,0,0,1,86.41,184.6Z"/><path class="cls-2" d="M36,32.9h68.21a36.24,36.24,0,0,1,22.29-7.7h9.89a10.49,10.49,0,0,0-10.09-7.6H46.51A10.5,10.5,0,0,0,36,28.1Z"/><path class="cls-2" d="M172.71,30.2l-46.3.1c-17.9,0-32.5,15.3-32.5,34.2V78.1c0,17.8,13.2,32.8,30.1,34.1l2.3.2.4,30.1,28.9-30.2h17.1c17.9,0,32.5-15.3,32.5-34.2V64.4C205.21,45.6,190.61,30.2,172.71,30.2Zm-33.8,22.5a2.42,2.42,0,0,1,2.8-2.1c6.4.9,11.3,3.5,14.5,7.9,5.4,7.3,4,16.7,3.9,17.1a2.55,2.55,0,0,1-2.5,2.1h-.4a2.51,2.51,0,0,1-2.1-2.9c0-.1,1.2-7.8-3-13.4-2.4-3.2-6.1-5.2-11.1-5.9A2.47,2.47,0,0,1,138.91,52.7Zm16.3,50.7-1-.1c-.9-.1-21.3-2.4-32.5-17.3-6.3-8.3-8.3-18.8-6.1-31.3l.2-.9,9.6-7.6,12.4,15.6-7.4,5.9c-.1,3.3.9,13.8,14.9,18.4l7.2-5.7,12.3,15.4Zm15.6-27.7a2.39,2.39,0,0,1-2.4,2H168a2.47,2.47,0,0,1-2.1-2.8c0-.1,1.9-13.2-5-22.5q-5.7-7.65-17.1-9.3a2.47,2.47,0,0,1-2.1-2.8,2.54,2.54,0,0,1,2.8-2.1c8.9,1.3,15.8,5.1,20.4,11.3C173.11,60.5,170.91,75.1,170.81,75.7Z"/><path class="cls-3" d="M172.81,25.2H141.53a15.6,15.6,0,0,0-15.22-12.6H46.51A15.58,15.58,0,0,0,31,28.1V176.9a15.58,15.58,0,0,0,15.5,15.5h79.8a15.6,15.6,0,0,0,15.5-15.6V133.87l16-16.67h15c20.7,0,37.5-17.6,37.5-39.2V64.4C210.31,42.8,193.51,25.2,172.81,25.2Zm32.4,52.9c0,18.9-14.6,34.2-32.5,34.2h-17.1l-28.9,30.2-.4-30.1-2.3-.2c-16.9-1.3-30.1-16.3-30.1-34.1V64.5c0-18.9,14.6-34.2,32.5-34.2l46.3-.1c17.9,0,32.5,15.4,32.5,34.2Zm-78.9,109.2H46.51A10.5,10.5,0,0,1,36,176.8v-9.7h100.8v9.7A10.5,10.5,0,0,1,126.31,187.3ZM46.51,17.6h79.8a10.49,10.49,0,0,1,10.09,7.6h-9.89a36.24,36.24,0,0,0-22.29,7.7H36V28.1A10.5,10.5,0,0,1,46.51,17.6ZM36,162.1V37.9h62.9A40.05,40.05,0,0,0,89,64.4V78c0,19.6,14,36.2,32.4,38.8l.4,37.9,15-15.62v23Z"/><path class="cls-2" d="M153.71,98.1l4.1-3.3-6.1-7.6-5.4,4.2-1.2-.3c-21.8-6.2-19.7-24.9-19.7-25.1l.1-1,5.1-4.1-6.3-7.9-4,3.5c-1.7,10.6.1,19.5,5.3,26.4C134.21,94.3,149.61,97.5,153.71,98.1Z"/><path class="cls-3" d="M145.31,86.1c-14-4.6-15-15.1-14.9-18.4l7.4-5.9-12.4-15.6-9.6,7.6-.2.9c-2.2,12.5-.2,23,6.1,31.3,11.2,14.9,31.6,17.2,32.5,17.3l1,.1,9.6-7.6-12.3-15.4Zm-25-29.6,4-3.5,6.3,7.9-5.1,4.1-.1,1c0,.2-2.1,18.9,19.7,25.1l1.2.3,5.4-4.2,6.1,7.6-4.1,3.3c-4.1-.6-19.5-3.8-28.1-15.2C120.41,76,118.61,67.1,120.31,56.5Z"/><path class="cls-3" d="M141,55.5c5,.7,8.7,2.7,11.1,5.9,4.2,5.6,3,13.3,3,13.4a2.51,2.51,0,0,0,2.1,2.9h.4a2.55,2.55,0,0,0,2.5-2.1c.1-.4,1.5-9.8-3.9-17.1-3.2-4.4-8.1-7-14.5-7.9a2.42,2.42,0,0,0-2.8,2.1A2.47,2.47,0,0,0,141,55.5Z"/><path class="cls-3" d="M144.51,38.2a2.54,2.54,0,0,0-2.8,2.1,2.47,2.47,0,0,0,2.1,2.8q11.4,1.65,17.1,9.3c6.9,9.3,5,22.4,5,22.5a2.47,2.47,0,0,0,2.1,2.8h.4a2.39,2.39,0,0,0,2.4-2c.1-.6,2.3-15.2-5.9-26.2C160.31,43.3,153.41,39.5,144.51,38.2Z"/><circle class="cls-2" cx="86.41" cy="176.6" r="3"/><path d="M86.41,168.6a8,8,0,1,0,8,8A8,8,0,0,0,86.41,168.6Zm0,11a3,3,0,1,1,3-3A3.08,3.08,0,0,1,86.41,179.6Z"/></g></g></svg>